<svg width="420" height="420" viewBox="0 0 420 420" fill="none" xmlns="http://www.w3.org/2000/svg">
  <ellipse cx="208" cy="340" rx="144" ry="36" fill="#7D7BFF" fill-opacity="0.45"/>
  <path d="M66 335C102 324 124 322 166 322C208 322 238 325 272 336C248 347 223 352 168 352C121 352 93 347 66 335Z" fill="#7D7BFF" fill-opacity="0.65"/>
  <path d="M209 56C146 56 94 108 94 171C94 220 123 264 167 285L206 360L248 285C292 265 323 220 323 171C323 108 271 56 209 56Z" fill="url(#pinGradient)"/>
  <path d="M209 113C174 113 146 141 146 176C146 211 174 239 209 239C244 239 272 211 272 176C272 141 244 113 209 113Z" fill="#0B8F47" fill-opacity="0.24"/>
  <path d="M82 220C92 214 105 218 110 229L120 248C125 259 121 272 112 279L93 294C83 301 69 299 61 290L49 275C41 266 40 252 47 243L61 227C66 221 74 218 82 220Z" fill="url(#wifiGradient)"/>
  <path d="M82 256C88 249 98 246 107 249" stroke="#EAF8FF" stroke-width="6" stroke-linecap="round"/>
  <path d="M75 248C86 238 102 233 117 236" stroke="#EAF8FF" stroke-width="6" stroke-linecap="round"/>
  <path d="M81 265C84.866 265 88 261.866 88 258C88 254.134 84.866 251 81 251C77.134 251 74 254.134 74 258C74 261.866 77.134 265 81 265Z" fill="#EAF8FF"/>
  <g transform="rotate(18 312 98)">
    <rect x="278" y="58" width="78" height="78" rx="12" fill="url(#lockGradient)"/>
    <path d="M303 95V86C303 76 311 68 321 68C331 68 339 76 339 86V95" stroke="#FFEAF4" stroke-width="6" stroke-linecap="round"/>
    <rect x="297" y="92" width="48" height="35" rx="8" fill="#FFEAF4" fill-opacity="0.3"/>
    <path d="M321 102C324 102 326 104 326 107V112" stroke="#FFEAF4" stroke-width="6" stroke-linecap="round"/>
  </g>
  <defs>
    <linearGradient id="pinGradient" x1="95" y1="56" x2="336" y2="347" gradientUnits="userSpaceOnUse">
      <stop stop-color="#1FC86A"/>
      <stop offset="1" stop-color="#0EA957"/>
    </linearGradient>
    <linearGradient id="wifiGradient" x1="42" y1="219" x2="130" y2="299" gradientUnits="userSpaceOnUse">
      <stop stop-color="#28C2FF"/>
      <stop offset="1" stop-color="#2A7BFF"/>
    </linearGradient>
    <linearGradient id="lockGradient" x1="278" y1="58" x2="356" y2="136" gradientUnits="userSpaceOnUse">
      <stop stop-color="#FF84B4"/>
      <stop offset="1" stop-color="#E15A88"/>
    </linearGradient>
  </defs>
</svg>
